<?xml version="1.0" standalone="no"?>
<!DOCTYPE svg PUBLIC "-//W3C//DTD SVG 20010904//EN"
 "http://www.w3.org/TR/2001/REC-SVG-20010904/DTD/svg10.dtd">
<svg version="1.0" xmlns="http://www.w3.org/2000/svg"
 width="128.000000pt" height="128.000000pt" viewBox="0 0 128.000000 128.000000"
 preserveAspectRatio="xMidYMid meet">
<metadata>
Created by potrace 1.11, written by Peter Selinger 2001-2013
</metadata>
<g transform="translate(0.000000,128.000000) scale(0.100000,-0.100000)"
fill="#000000" stroke="none">
<path d="M636 1241 c-4 -6 -16 -11 -27 -11 -11 0 -17 -4 -14 -10 3 -5 -1 -10
-10 -10 -10 0 -13 -5 -9 -12 5 -8 2 -9 -10 -5 -10 4 -15 3 -11 -4 4 -5 1 -17
-7 -26 -9 -12 -9 -15 -1 -9 16 9 13 -35 -2 -46 -6 -4 -2 -8 8 -8 16 0 22 -12
17 -35 -1 -5 2 -7 6 -3 4 4 13 0 21 -10 8 -9 12 -11 8 -5 -4 9 -1 11 9 7 9 -3
13 -11 9 -18 -5 -8 -3 -8 8 0 8 5 28 10 46 10 17 -1 29 2 27 6 -3 4 5 12 16
18 11 6 19 14 19 18 -4 21 2 32 14 26 10 -6 10 -4 0 7 -7 7 -13 17 -13 22 0 4
6 5 13 1 8 -6 8 -3 -1 9 -8 9 -10 22 -6 28 4 8 3 9 -4 5 -7 -4 -12 -1 -12 8 0
9 -5 16 -11 16 -16 0 -39 26 -31 36 4 5 0 3 -9 -4 -11 -8 -19 -8 -26 -1 -8 8
-13 8 -17 0z"/>
<path d="M618 992 c-16 -2 -28 -8 -28 -13 0 -6 -4 -8 -8 -5 -5 3 -15 -4 -22
-15 -8 -10 -21 -19 -29 -19 -8 0 -11 -3 -8 -7 4 -3 -1 -12 -11 -20 -9 -8 -11
-12 -4 -8 18 9 15 -6 -5 -21 -13 -10 -14 -13 -4 -14 11 0 11 -3 0 -17 -12 -15
-12 -16 1 -8 9 5 7 -1 -5 -15 -11 -13 -14 -20 -7 -16 6 4 12 2 12 -3 0 -6 -4
-11 -10 -11 -5 0 -10 -5 -10 -11 0 -5 6 -7 13 -4 6 4 3 -1 -7 -9 -11 -9 -17
-16 -14 -16 4 0 -3 -11 -15 -24 -15 -17 -24 -21 -29 -13 -5 7 -8 2 -9 -13 0
-14 -3 -19 -6 -12 -4 10 -9 9 -20 -5 -8 -10 -12 -12 -8 -5 3 6 1 12 -4 12 -6
0 -11 -4 -11 -9 0 -6 -9 -8 -20 -6 -11 2 -22 -1 -26 -7 -4 -6 -10 -5 -15 3 -7
11 -9 11 -9 1 0 -7 -4 -10 -10 -7 -5 3 -10 2 -10 -3 0 -5 -12 -14 -26 -20 -14
-7 -22 -17 -19 -22 5 -9 -7 -14 -26 -12 -4 1 -5 -8 -2 -18 3 -11 1 -20 -4 -20
-5 0 -9 -15 -8 -32 0 -18 -3 -39 -9 -46 -7 -9 -5 -12 5 -10 8 2 13 -3 11 -9
-1 -7 3 -13 9 -13 6 0 9 -6 6 -13 -5 -14 55 -60 78 -60 11 0 12 -4 4 -13 -7
-9 -3 -12 16 -10 14 0 25 5 25 10 0 5 2 7 5 4 10 -10 -7 -38 -23 -38 -30 0 -1
-14 32 -15 18 -1 38 -5 44 -9 6 -3 13 -2 17 4 3 5 11 10 18 10 6 0 2 -7 -9
-15 -12 -9 -14 -14 -6 -15 7 0 10 -5 7 -11 -5 -6 -12 -4 -21 8 -11 13 -14 14
-12 3 2 -8 7 -18 11 -21 5 -3 2 -9 -6 -12 -11 -4 -15 0 -12 14 5 23 -22 23
-43 -1 -12 -13 -13 -13 -6 0 6 12 5 13 -7 4 -8 -6 -22 -10 -32 -9 -10 2 -14
-1 -11 -7 5 -7 2 -8 -6 -3 -9 6 -11 4 -5 -5 6 -10 4 -11 -6 -4 -8 5 -21 9 -29
9 -8 0 -14 6 -12 12 1 7 -2 13 -8 13 -5 0 -10 -7 -10 -16 0 -9 -5 -12 -12 -8
-7 4 -8 3 -4 -4 4 -6 14 -8 24 -5 14 6 15 4 4 -9 -7 -9 -9 -24 -5 -34 6 -16 5
-17 -9 -6 -13 11 -18 11 -24 0 -4 -7 -3 -10 1 -5 5 4 17 0 27 -10 10 -9 21
-13 25 -10 3 4 1 7 -6 7 -7 0 -10 4 -6 10 3 5 12 7 19 4 8 -3 21 4 29 16 9 13
17 17 22 11 3 -6 3 -11 -2 -11 -4 0 0 -5 11 -11 14 -9 20 -8 27 2 4 7 5 17 3
21 -3 4 -1 8 4 8 17 0 21 -13 11 -34 -10 -20 -9 -20 10 2 12 13 22 18 26 12 3
-6 11 -8 16 -5 5 4 9 1 9 -4 0 -6 5 -11 11 -11 8 0 8 5 -1 15 -7 8 -16 12 -21
9 -5 -3 -9 0 -9 5 0 15 23 14 39 -1 11 -10 13 -10 7 0 -5 7 -1 12 9 12 9 0 14
-4 11 -8 -2 -4 -1 -14 3 -21 6 -9 11 -10 15 -2 4 6 2 11 -4 11 -6 0 -9 4 -5 9
3 6 15 8 27 6 11 -3 17 -1 14 3 -4 4 -12 8 -17 8 -22 3 -23 5 -9 15 11 8 9 9
-10 3 -23 -6 -24 -5 -11 10 13 15 13 19 0 26 -8 5 -14 15 -14 22 0 8 -11 12
-27 10 -15 -1 -29 2 -33 7 -3 6 -12 8 -20 4 -18 -6 -19 6 -4 27 9 13 10 12 5
-3 -3 -10 -2 -15 3 -12 5 3 12 1 16 -5 8 -13 25 -13 25 0 0 6 -5 9 -11 8 -6
-2 -14 3 -16 10 -3 6 3 12 12 12 10 0 13 5 9 12 -4 7 -3 8 5 4 13 -9 43 18 33
29 -4 5 1 5 11 2 12 -5 17 -1 17 13 0 11 5 20 11 20 6 0 9 9 6 20 -3 11 -1 20
3 20 4 0 6 10 2 22 -3 15 -2 19 7 14 14 -9 11 16 -4 26 -6 5 -5 8 2 8 8 0 10
7 6 18 -6 15 -5 16 13 2 10 -8 16 -10 12 -6 -4 5 -2 16 5 24 10 13 9 14 -1 8
-11 -7 -11 -4 -1 12 7 12 16 19 20 16 4 -2 9 0 11 6 2 6 21 13 43 15 21 3 42
9 45 13 10 14 74 -4 65 -18 -3 -4 5 -6 17 -2 14 3 19 2 14 -6 -4 -7 -1 -12 9
-12 11 0 15 -5 12 -14 -4 -10 -1 -13 9 -9 12 4 15 0 12 -14 -1 -11 2 -26 8
-34 7 -8 14 -34 17 -59 3 -24 10 -46 15 -48 6 -2 8 -10 5 -18 -3 -8 -1 -14 4
-14 4 0 22 -12 38 -27 16 -16 31 -27 32 -25 2 1 4 2 6 1 1 0 20 -2 42 -3 22
-2 42 -4 44 -5 2 0 -4 -12 -13 -25 -15 -23 -15 -25 4 -23 16 1 19 7 16 35 -2
21 1 31 8 29 6 -2 17 3 24 12 11 13 12 13 6 1 -3 -8 5 -4 19 10 13 14 24 30
23 35 0 6 4 9 10 8 5 -1 10 8 11 20 3 60 3 74 1 94 -1 12 -7 19 -12 16 -5 -4
-7 1 -3 10 3 9 1 19 -5 23 -7 5 -8 2 -3 -6 5 -9 4 -11 -3 -6 -7 4 -12 13 -12
21 0 8 -5 17 -12 21 -7 5 -8 2 -3 -7 5 -8 -4 -3 -18 10 -15 13 -33 21 -41 18
-9 -4 -16 -3 -16 1 0 4 -18 7 -39 7 -22 0 -39 4 -38 10 1 5 -8 11 -21 13 -12
2 -20 8 -17 13 4 5 -1 9 -10 9 -10 0 -13 5 -9 12 5 8 2 9 -10 5 -9 -4 -15 -3
-12 2 3 5 -1 14 -9 21 -7 6 -11 18 -8 27 3 8 0 19 -8 24 -12 7 -12 9 0 9 11 0
11 3 1 15 -10 12 -10 15 1 15 8 0 5 6 -7 15 -12 9 -14 14 -6 15 10 0 9 4 -2
16 -9 8 -14 19 -11 24 3 4 -3 14 -13 21 -15 12 -16 12 -7 -1 9 -14 9 -14 -5 0
-30 31 -84 48 -132 42z m12 -296 c0 -3 -4 -8 -10 -11 -5 -3 -10 -1 -10 4 0 6
5 11 10 11 6 0 10 -2 10 -4z m-180 -411 c-5 -6 -7 -14 -4 -17 2 -3 -2 -8 -11
-11 -8 -4 -15 -2 -15 4 0 5 -13 3 -30 -6 -25 -13 -30 -13 -37 -1 -7 13 -11 13
-27 0 -11 -8 -14 -14 -7 -14 7 0 9 -5 6 -11 -5 -6 -13 -3 -22 10 -17 25 -10
41 17 36 11 -2 22 0 25 6 8 12 25 12 25 -2 0 -5 -5 -7 -12 -3 -6 4 -8 3 -4 -4
3 -6 16 -9 28 -7 28 6 59 35 51 49 -4 6 1 5 10 -3 12 -9 14 -17 7 -26z m-180
-40 c0 -17 -23 -25 -41 -14 -12 8 -11 12 5 24 21 16 36 12 36 -10z"/>
<path d="M429 283 c-13 -16 -12 -17 4 -4 9 7 17 15 17 17 0 8 -8 3 -21 -13z"/>
<path d="M240 250 c-9 -6 -10 -10 -3 -10 6 0 15 5 18 10 8 12 4 12 -15 0z"/>
<path d="M316 935 c-10 -8 -24 -12 -29 -8 -6 4 -8 0 -5 -9 4 -8 -3 -20 -14
-27 -17 -11 -18 -15 -7 -22 8 -5 9 -9 4 -9 -18 0 -15 -43 3 -57 12 -10 12 -13
2 -8 -10 4 -9 2 2 -8 10 -8 14 -18 10 -22 -4 -5 -2 -5 5 -1 6 3 14 2 18 -4 3
-5 15 -10 26 -10 14 0 18 -4 13 -12 -6 -10 -5 -10 8 -1 8 7 18 10 21 6 4 -3 7
-1 7 5 0 6 7 9 15 6 9 -4 21 6 33 25 10 17 23 28 28 23 4 -4 3 0 -4 10 -10 13
-10 17 0 20 10 4 10 8 -1 21 -11 14 -11 17 0 17 10 1 9 4 -3 14 -10 7 -18 22
-18 32 0 16 -2 17 -10 4 -9 -13 -14 -8 -11 12 0 3 -7 5 -17 3 -9 -1 -20 3 -24
8 -4 7 -12 6 -24 -4 -11 -9 -15 -9 -10 -1 9 15 6 15 -18 -3z"/>
<path d="M904 929 c-16 -9 -33 -14 -38 -11 -5 3 -6 0 -3 -5 4 -6 0 -16 -8 -23
-7 -6 -11 -18 -8 -26 3 -8 -1 -22 -8 -31 -8 -9 -9 -14 -3 -10 7 4 17 -5 24
-23 7 -16 23 -36 36 -45 27 -18 38 -19 28 -4 -3 6 4 4 18 -5 22 -15 25 -14 53
12 16 15 34 26 40 24 5 -2 7 0 3 4 -4 4 -2 14 5 22 10 13 9 14 -3 7 -12 -7
-13 -6 -4 6 6 8 10 23 8 34 -3 11 -5 27 -6 36 -1 9 -8 15 -15 12 -7 -3 -13 2
-13 11 0 9 -6 15 -12 14 -7 -2 -12 2 -11 7 2 16 -52 12 -83 -6z m76 -175 c0
-8 -19 -13 -24 -6 -3 5 1 9 9 9 8 0 15 -2 15 -3z"/>
<path d="M650 651 c-8 -6 -17 -8 -22 -5 -4 3 -17 -5 -28 -16 -11 -11 -26 -18
-32 -14 -7 4 -8 3 -4 -4 4 -7 3 -12 -3 -12 -5 0 -8 -12 -5 -26 3 -16 1 -23 -6
-19 -12 7 -2 -23 14 -44 9 -12 8 -13 -4 -6 -8 4 -5 -2 7 -14 12 -11 27 -21 34
-21 6 0 8 -7 5 -16 -4 -10 -2 -13 6 -7 7 4 27 6 45 4 20 -1 33 2 33 9 0 6 3 9
8 7 4 -3 13 1 20 9 7 8 10 14 5 14 -4 0 2 6 13 14 10 8 16 18 12 21 -4 4 -3
15 2 25 7 13 4 24 -10 40 -11 12 -17 27 -14 32 3 4 2 8 -3 7 -22 -4 -34 2 -27
14 6 9 4 9 -8 -1 -13 -10 -18 -10 -24 -1 -5 8 -3 9 6 4 9 -5 11 -4 6 3 -9 14
-7 14 -26 3z"/>
<path d="M901 368 c-1 -12 -7 -16 -18 -12 -15 5 -16 4 -3 -5 8 -6 11 -11 5
-11 -5 0 -16 -4 -24 -9 -13 -8 -13 -12 0 -27 12 -15 12 -16 -9 -10 -16 6 -22
3 -22 -8 0 -9 5 -16 11 -16 5 0 8 -4 4 -10 -3 -5 -13 -7 -23 -3 -11 3 -9 0 5
-11 18 -13 27 -15 40 -6 15 9 14 10 -7 5 -24 -6 -24 -5 -6 9 21 17 47 6 42
-17 -1 -7 -1 -9 1 -4 3 4 9 5 13 2 5 -3 12 0 16 6 4 7 3 10 -2 7 -5 -3 -14 0
-21 7 -9 10 -9 17 1 30 13 18 36 13 36 -7 0 -7 -6 -6 -15 2 -8 7 -15 9 -15 4
0 -5 13 -18 28 -29 20 -14 23 -15 14 -3 -12 15 -10 17 15 15 18 -2 32 -11 40
-27 9 -17 13 -20 13 -8 0 9 -6 23 -12 30 -7 7 -19 21 -27 31 -12 15 -11 17 7
14 24 -3 42 -17 24 -17 -7 0 -3 -9 8 -20 22 -22 51 -17 44 8 -4 12 1 10 15 -6
11 -13 18 -31 15 -40 -4 -12 -3 -13 3 -4 14 18 9 57 -7 57 -7 0 -15 6 -18 14
-3 9 0 11 8 6 9 -5 11 -4 6 4 -4 6 -12 8 -18 5 -8 -5 -9 -1 -4 12 4 10 4 15 0
12 -9 -9 -33 15 -26 26 3 5 0 6 -7 2 -6 -4 -9 -11 -6 -16 9 -15 -38 -35 -57
-24 -4 3 -1 15 7 27 13 21 13 22 -15 23 -18 1 -31 -4 -35 -15 -6 -14 -8 -13
-15 4 -7 17 -9 17 -9 3z m59 -9 c0 8 3 11 6 8 4 -4 1 -13 -5 -21 -8 -10 -9
-16 -1 -21 6 -3 8 -10 5 -15 -3 -5 -1 -11 5 -15 6 -4 8 -11 4 -16 -4 -6 -16
-1 -31 13 -25 23 -25 23 -41 3 -20 -24 -48 -30 -58 -14 -4 7 -3 9 4 6 5 -4 17
-4 26 -1 15 6 15 7 0 18 -15 11 -14 14 8 28 16 11 29 13 40 7 11 -6 19 -5 23
1 3 5 1 10 -5 10 -6 0 -8 5 -4 11 4 8 9 7 15 -2 7 -12 9 -12 9 0z m92 -74 c-3
-20 -7 -23 -18 -14 -8 6 -12 15 -9 19 3 5 1 12 -5 15 -8 5 -7 11 1 22 12 13
14 13 25 -1 6 -9 9 -27 6 -41z"/>
<path d="M887 325 c-14 -10 -15 -14 -4 -18 8 -3 20 0 26 6 8 8 18 4 38 -14 15
-13 22 -17 16 -9 -6 8 -12 18 -12 23 -1 4 -4 7 -8 8 -5 1 -15 5 -23 9 -9 5
-22 3 -33 -5z"/>
<path d="M1025 321 c-6 -11 13 -26 22 -17 4 3 1 6 -6 6 -7 0 -9 5 -6 10 3 6 4
10 1 10 -3 0 -7 -4 -11 -9z"/>
<path d="M304 362 c-18 -11 -14 -70 5 -67 8 1 17 7 19 13 2 7 8 10 13 6 5 -3
9 0 9 6 0 7 -6 10 -14 7 -8 -3 -20 0 -26 8 -8 10 -7 16 7 24 10 6 14 10 8 11
-5 0 -15 -4 -21 -8z"/>
<path d="M264 352 c4 -7 2 -12 -4 -12 -6 0 -8 -5 -5 -11 4 -6 1 -9 -7 -7 -7 2
-13 -1 -13 -7 0 -5 5 -10 12 -10 6 0 15 -4 20 -9 4 -5 3 -7 -2 -3 -6 3 -17 1
-25 -4 -11 -7 -8 -8 10 -5 17 2 24 9 22 21 -2 10 1 14 7 10 6 -3 11 -1 11 4 0
6 -5 11 -11 11 -5 0 -8 4 -4 9 3 5 0 13 -6 17 -8 4 -9 3 -5 -4z"/>
<path d="M602 294 c-10 -11 -10 -14 0 -14 9 0 9 -3 -2 -11 -12 -9 -12 -10 3
-5 12 4 17 2 14 -6 -2 -7 -11 -12 -21 -10 -26 5 -19 -4 22 -27 35 -20 36 -20
13 -1 -13 11 -22 20 -20 21 41 8 59 6 59 -6 0 -8 4 -16 9 -20 12 -7 43 24 36
36 -4 5 -2 9 4 9 5 0 15 -8 20 -17 6 -10 11 -13 11 -7 0 10 -45 54 -56 54 -4
0 -1 -7 6 -15 9 -11 9 -15 1 -15 -6 0 -16 10 -22 23 -6 13 -20 24 -32 24 -15
2 -18 0 -8 -6 8 -6 9 -11 3 -15 -6 -4 -14 0 -19 8 -7 12 -10 12 -21 0z m44
-13 c9 7 19 3 37 -15 23 -23 24 -26 9 -38 -13 -11 -15 -10 -10 4 7 18 -13 31
-35 23 -6 -3 -18 5 -26 17 -10 17 -10 20 0 11 9 -9 16 -9 25 -2z"/>
<path d="M563 232 c0 -11 5 -18 11 -15 5 4 7 -1 3 -10 -3 -9 -3 -19 2 -21 13
-8 9 27 -5 48 -13 18 -13 18 -11 -2z"/>
<path d="M970 246 c0 -2 7 -7 16 -10 8 -3 12 -2 9 4 -6 10 -25 14 -25 6z"/>
<path d="M1065 240 c3 -5 8 -10 11 -10 2 0 4 5 4 10 0 6 -5 10 -11 10 -5 0 -7
-4 -4 -10z"/>
<path d="M814 232 c3 -5 0 -13 -6 -15 -9 -4 -10 -6 -1 -6 17 -1 25 16 12 25
-7 4 -9 3 -5 -4z"/>
<path d="M490 220 c0 -5 5 -10 11 -10 5 0 7 5 4 10 -3 6 -8 10 -11 10 -2 0 -4
-4 -4 -10z"/>
<path d="M873 212 c2 -12 6 -24 10 -28 3 -4 4 4 2 16 -6 30 -16 40 -12 12z"/>
<path d="M440 211 c0 -6 4 -13 10 -16 6 -3 7 1 4 9 -7 18 -14 21 -14 7z"/>
<path d="M910 217 c0 -2 6 -10 14 -16 11 -9 16 -9 22 1 4 7 4 10 -1 6 -4 -4
-14 -3 -22 3 -7 6 -13 9 -13 6z"/>
<path d="M964 198 l-19 -23 23 19 c21 18 27 26 19 26 -2 0 -12 -10 -23 -22z"/>
<path d="M1059 218 c-5 -9 -5 -48 -1 -43 6 6 11 45 5 45 -2 0 -4 -1 -4 -2z"/>
<path d="M270 202 c0 -5 7 -9 15 -9 8 0 15 4 15 9 0 4 -7 8 -15 8 -8 0 -15 -4
-15 -8z"/>
<path d="M546 197 c3 -10 9 -15 12 -12 3 3 0 11 -7 18 -10 9 -11 8 -5 -6z"/>
<path d="M607 199 c7 -7 15 -10 18 -7 3 3 -2 9 -12 12 -14 6 -15 5 -6 -5z"/>
<path d="M740 200 c0 -5 7 -7 15 -4 8 4 15 8 15 10 0 2 -7 4 -15 4 -8 0 -15
-4 -15 -10z"/>
<path d="M830 201 c0 -6 4 -13 10 -16 6 -3 7 1 4 9 -7 18 -14 21 -14 7z"/>
<path d="M1090 201 c0 -6 4 -13 10 -16 6 -3 7 1 4 9 -7 18 -14 21 -14 7z"/>
<path d="M390 190 c-9 -6 -10 -10 -3 -10 6 0 15 5 18 10 8 12 4 12 -15 0z"/>
<path d="M470 195 c0 -7 30 -13 34 -7 3 4 -4 9 -15 9 -10 1 -19 0 -19 -2z"/>
<path d="M230 170 c-14 -10 -21 -22 -17 -26 4 -4 7 -2 7 5 0 7 4 10 9 7 5 -3
12 1 15 10 3 8 11 12 17 8 8 -4 9 -3 5 4 -9 15 -6 15 -36 -8z"/>
<path d="M339 188 c-5 -18 -6 -38 -1 -34 7 8 12 36 6 36 -2 0 -4 -1 -5 -2z"/>
<path d="M639 173 c-13 -16 -12 -17 4 -4 16 13 21 21 13 21 -2 0 -10 -8 -17
-17z"/>
<path d="M805 179 c-4 -6 -5 -12 -2 -15 2 -3 7 2 10 11 7 17 1 20 -8 4z"/>
<path d="M450 176 c0 -2 8 -10 18 -17 15 -13 16 -12 3 4 -13 16 -21 21 -21 13z"/>
<path d="M490 162 c0 -5 7 -9 15 -9 8 0 12 4 9 9 -7 10 -24 10 -24 0z"/>
<path d="M546 158 c3 -4 9 -8 15 -8 5 0 9 4 9 8 0 5 -7 9 -15 9 -8 0 -12 -4
-9 -9z"/>
<path d="M700 165 c0 -2 6 -8 13 -14 10 -8 14 -7 14 2 0 8 -6 14 -14 14 -7 0
-13 -1 -13 -2z"/>
<path d="M816 153 c-6 -14 -5 -15 5 -6 7 7 10 15 7 18 -3 3 -9 -2 -12 -12z"/>
<path d="M955 161 c-3 -5 -2 -12 3 -15 5 -3 9 1 9 9 0 17 -3 19 -12 6z"/>
<path d="M1090 159 c0 -5 5 -7 10 -4 6 3 10 8 10 11 0 2 -4 4 -10 4 -5 0 -10
-5 -10 -11z"/>
<path d="M405 140 c-3 -6 1 -7 9 -4 18 7 21 14 7 14 -6 0 -13 -4 -16 -10z"/>
<path d="M614 125 c0 -13 3 -22 7 -19 8 4 6 30 -2 38 -3 3 -5 -5 -5 -19z"/>
<path d="M270 96 c0 -2 8 -10 18 -17 15 -13 16 -12 3 4 -13 16 -21 21 -21 13z"/>
<path d="M996 73 c-6 -14 -5 -15 5 -6 7 7 10 15 7 18 -3 3 -9 -2 -12 -12z"/>
<path d="M375 60 c3 -5 8 -10 11 -10 2 0 4 5 4 10 0 6 -5 10 -11 10 -5 0 -7
-4 -4 -10z"/>
</g>
</svg>
